<?xml version="1.0" standalone="no"?>
<!DOCTYPE svg PUBLIC "-//W3C//DTD SVG 20010904//EN"
 "http://www.w3.org/TR/2001/REC-SVG-20010904/DTD/svg10.dtd">
<svg version="1.0" xmlns="http://www.w3.org/2000/svg"
 width="700.000000pt" height="700.000000pt" viewBox="0 0 700.000000 700.000000"
 preserveAspectRatio="xMidYMid meet">
<metadata>
Created by potrace 1.11, written by Peter Selinger 2001-2013
</metadata>
<g transform="translate(0.000000,700.000000) scale(0.100000,-0.100000)"
fill="#000000" stroke="none">
<path d="M3338 6995 c-2 -1 -43 -5 -93 -9 -98 -6 -219 -21 -305 -36 -30 -5
-71 -12 -90 -15 -215 -36 -548 -140 -770 -241 -417 -190 -748 -419 -1067 -741
-369 -372 -653 -831 -823 -1330 -68 -199 -111 -379 -154 -643 -38 -233 -41
-651 -5 -915 16 -127 18 -134 39 -245 222 -1132 998 -2085 2072 -2543 98 -42
376 -140 429 -151 13 -3 49 -11 79 -19 78 -20 151 -37 180 -42 14 -2 52 -9 85
-14 205 -36 327 -45 585 -46 180 0 284 5 423 20 96 10 304 49 427 80 1271 318
2260 1321 2559 2595 16 69 32 145 36 170 4 25 9 54 11 65 2 11 11 72 20 135
19 129 28 610 14 720 -5 36 -11 90 -14 120 -69 634 -340 1277 -752 1786 -105
129 -126 152 -259 284 -210 207 -375 338 -619 490 -100 64 -380 209 -466 244
-25 10 -58 24 -75 31 -181 78 -559 182 -765 210 -25 3 -56 8 -70 10 -14 2 -52
7 -85 10 -33 3 -85 8 -115 11 -59 6 -427 13 -432 9z"/>
</g>
</svg>
